<svg width="190" height="40" viewBox="0 0 190 40" fill="none" xmlns="http://www.w3.org/2000/svg">
<path fill-rule="evenodd" clip-rule="evenodd" d="M119.995 8.69145C119.718 7.93968 119.237 7.25589 118.552 6.64207C117.87 6.02626 116.953 5.51841 115.805 5.12053C114.655 4.72265 113.211 4.52271 111.469 4.52271C110.165 4.52271 108.985 4.77063 107.927 5.26448C106.87 5.75833 105.928 6.43013 105.1 7.27588C104.275 8.12362 103.559 9.11132 102.953 10.241C102.345 11.3706 101.845 12.5723 101.453 13.8499C101.059 15.1275 100.768 16.4411 100.582 17.7967C100.394 19.1503 100.301 20.4679 100.301 21.7515C100.301 22.2774 100.303 22.9872 100.311 23.8789C100.317 24.7706 100.352 25.7223 100.416 26.738C100.481 27.7517 100.584 28.7774 100.727 29.8171C100.869 30.8568 101.079 31.7965 101.356 32.6363C101.633 33.478 101.981 34.1638 102.401 34.6956C102.82 35.2295 103.345 35.4954 103.978 35.4954C104.637 35.4954 105.197 35.2675 105.662 34.8116C106.128 34.3577 106.513 33.7659 106.824 33.0401C107.133 32.3164 107.378 31.4946 107.558 30.5769C107.74 29.6592 107.875 28.7394 107.966 27.8157C108.055 26.89 108.115 26.0083 108.14 25.1685C108.166 24.3268 108.178 23.613 108.178 23.0231C108.178 22.4765 107.843 21.9874 107.339 21.7763C106.657 21.491 106.096 21.2328 105.653 21.0018C105.039 20.6799 104.578 20.3719 104.269 20.076C103.958 19.7821 103.762 19.4702 103.677 19.1423C103.594 18.8164 103.553 18.4345 103.553 17.9987C103.553 17.7667 103.559 17.5388 103.572 17.3149C103.584 17.0889 103.62 16.891 103.677 16.719C103.737 16.5451 103.82 16.4031 103.931 16.2952C104.04 16.1852 104.192 16.1312 104.384 16.1312C104.515 16.1312 104.633 16.1572 104.742 16.2072C104.853 16.2592 104.992 16.3292 105.16 16.4191C105.585 16.6511 105.971 16.841 106.319 16.987C106.668 17.1349 106.965 17.2549 107.21 17.3429C107.601 17.4854 107.987 17.1803 107.992 16.7645C107.992 16.7067 107.993 16.6462 107.994 16.5831C108.002 16.0892 108.039 15.5234 108.111 14.8896C108.182 14.2538 108.301 13.59 108.469 12.8962C108.637 12.2044 108.882 11.5686 109.205 10.9908C109.528 10.4129 109.947 9.93708 110.462 9.55719C110.978 9.1793 111.618 8.98936 112.38 8.98936C112.611 8.98936 112.851 9.01136 113.094 9.05734C113.339 9.10133 113.563 9.1853 113.763 9.30727C113.963 9.42923 114.131 9.59318 114.266 9.79712C114.402 10.0031 114.469 10.267 114.469 10.5869C114.469 10.6769 114.465 10.7388 114.46 10.7708C114.444 10.8522 114.44 10.9354 114.421 11.0159L113.268 15.8413C113.18 16.6081 113.847 17.2529 114.594 17.0592C115.243 16.891 115.834 16.6839 116.365 16.4391C117.282 16.0153 118.04 15.5154 118.639 14.9376C119.239 14.3597 119.686 13.7259 119.975 13.0322C120.266 12.3384 120.411 11.6266 120.411 10.8948C120.411 10.177 120.272 9.44123 119.995 8.69145ZM86.7323 23.1471C86.6412 22.6393 86.5067 22.2014 86.3266 21.8295C86.1445 21.4556 85.9129 21.1617 85.6299 20.9438C85.3449 20.7258 85.0025 20.6159 84.6028 20.6159C84.0743 20.6159 83.5717 20.8398 83.0947 21.2897C82.6158 21.7395 82.1962 22.3134 81.836 23.0132C81.4738 23.7109 81.1908 24.4847 80.985 25.3325C80.7772 26.1782 80.6743 26.994 80.6743 27.7757C80.6743 28.3156 80.7257 28.8214 80.8286 29.2973C80.9315 29.7711 81.0938 30.187 81.3135 30.5389C81.5332 30.8908 81.8221 31.1747 82.1843 31.3846C82.5445 31.5966 82.9779 31.7045 83.4806 31.7045C83.92 31.7045 84.3455 31.4806 84.7591 31.0387C85.1708 30.5969 85.533 30.039 85.8417 29.3633C86.1524 28.6915 86.3998 27.9457 86.5878 27.1319C86.7738 26.3162 86.8689 25.5364 86.8689 24.7926C86.8689 24.2028 86.8233 23.653 86.7323 23.1471ZM68.2415 14.6777C68.606 14.7152 68.9624 14.5418 69.1459 14.2247C69.4387 13.7189 69.7397 13.1839 70.0504 12.6183C70.47 11.8545 70.848 11.1047 71.1825 10.3649C71.5189 9.62717 71.796 8.93738 72.0157 8.29758C72.2354 7.65577 72.3442 7.12992 72.3442 6.71805C72.3442 6.57809 72.3343 6.42013 72.3145 6.24619C72.2967 6.07424 72.2532 5.91029 72.1898 5.75633C72.1245 5.60238 72.0256 5.47442 71.889 5.37045C71.7544 5.26848 71.5644 5.21649 71.319 5.21649C70.9826 5.21649 70.6441 5.51241 70.3018 6.10223C69.9594 6.69206 69.6308 7.44783 69.3162 8.36356C68.9995 9.28128 68.7026 10.293 68.4256 11.3966C68.1974 12.2992 67.9864 13.1791 67.7893 14.0384C67.7189 14.3453 67.9283 14.6454 68.2415 14.6777ZM55.7355 23.1471C55.6445 22.6393 55.5079 22.2014 55.3279 21.8295C55.1478 21.4556 54.9142 21.1617 54.6312 20.9438C54.3462 20.7258 54.0058 20.6159 53.606 20.6159C53.0756 20.6159 52.5729 20.8398 52.096 21.2897C51.619 21.7395 51.1994 22.3134 50.8373 23.0132C50.4771 23.7109 50.1921 24.4847 49.9863 25.3325C49.7784 26.1782 49.6755 26.994 49.6755 27.7757C49.6755 28.3156 49.727 28.8214 49.8319 29.2973C49.9348 29.7711 50.0951 30.187 50.3148 30.5389C50.5345 30.8908 50.8254 31.1747 51.1856 31.3846C51.5478 31.5966 51.9792 31.7045 52.4839 31.7045C52.9213 31.7045 53.3468 31.4806 53.7604 31.0387C54.174 30.5969 54.5342 30.039 54.845 29.3633C55.1537 28.6915 55.4031 27.9457 55.5891 27.1319C55.7771 26.3162 55.8701 25.5364 55.8701 24.7926C55.8701 24.2028 55.8246 23.653 55.7355 23.1471ZM122.008 17.5928C121.02 18.6325 119.775 19.5322 118.273 20.29C117.432 20.7128 116.509 21.0655 115.504 21.3481C114.06 21.7545 112.931 22.9671 112.882 24.4667C112.868 24.7986 112.856 25.1325 112.843 25.4664C112.831 25.8003 112.821 26.1042 112.815 26.3801C112.807 26.6581 112.801 26.898 112.795 27.1019C112.789 27.3079 112.785 27.4498 112.785 27.5258C112.76 28.4235 112.653 29.3573 112.467 30.327C112.279 31.2967 112.007 32.2424 111.653 33.1661C111.297 34.0898 110.865 34.9656 110.357 35.7933C109.846 36.6211 109.253 37.3469 108.576 37.9687C107.899 38.5905 107.139 39.0843 106.302 39.4502C105.463 39.8161 104.546 40.0001 103.553 40.0001C102.494 40.0001 101.55 39.7262 100.717 39.1803C99.8854 38.6365 99.1551 37.9007 98.5297 36.977C97.9043 36.0533 97.3739 34.9876 96.9425 33.7819C96.5091 32.5763 96.1588 31.3147 95.8876 29.9991C95.8465 29.7961 95.6147 29.7235 95.4801 29.8809C95.2149 30.191 94.9511 30.5019 94.6586 30.7988C93.8531 31.6186 92.9803 32.3484 92.0462 32.9822C91.1101 33.618 90.1067 34.1258 89.036 34.5037C87.9653 34.8816 86.8174 35.0715 85.5903 35.0715C85.0785 35.0715 84.569 35.1455 84.0691 35.2558C83.6374 35.3511 83.1903 35.3994 82.7266 35.3994C81.5906 35.3994 80.6188 35.1515 79.8133 34.6577C79.0059 34.1638 78.3448 33.518 77.8283 32.7242C77.5179 32.2408 76.8925 32.035 76.3928 32.3184C75.9848 32.5498 75.5957 32.7687 75.2278 32.9742C74.26 33.512 73.3991 33.9619 72.645 34.3218C71.889 34.6797 71.2181 34.9496 70.6323 35.1295C70.0445 35.3095 69.5121 35.3994 69.0351 35.3994C68.0535 35.3994 67.1886 35.1035 66.4405 34.5137C65.6924 33.9239 65.067 33.0741 64.5643 31.9625C64.0986 30.9376 62.4259 30.6987 61.7131 31.5699C60.631 32.8925 59.3227 33.9503 57.7582 34.5037C56.6855 34.8816 55.8998 35.0715 54.6728 35.0715C54.1188 35.0715 53.5681 35.1503 53.0262 35.2651C52.6079 35.3536 52.1755 35.3994 51.7279 35.3994C50.5919 35.3994 49.6201 35.1515 48.8146 34.6577C48.0091 34.1638 47.3461 33.518 46.8316 32.7242C46.7195 32.5513 46.6139 32.3738 46.515 32.1915C46.3443 31.877 45.8946 31.8183 45.6599 32.0884C44.9752 32.8702 44.2785 33.51 43.57 34.0039C42.8595 34.4977 42.1391 34.8536 41.4108 35.0715C40.6825 35.2895 39.9562 35.3994 39.2338 35.3994C38.5371 35.3994 37.8563 35.2775 37.1913 35.0336C36.5264 34.7896 35.9366 34.4277 35.42 33.9459C34.9035 33.464 34.4918 32.8682 34.1811 32.1564C33.8724 31.4426 33.718 30.6249 33.718 29.7012C33.718 29.5992 33.72 29.4892 33.7279 29.3752C33.7338 29.2593 33.7437 29.1433 33.7556 29.0274C33.8071 28.1676 33.9179 27.2539 34.0841 26.2842C34.2524 25.3165 34.4424 24.3188 34.6561 23.2911C34.8698 22.2654 35.0915 21.2197 35.3231 20.154C35.5566 19.0883 35.7684 18.0266 35.9623 16.969C36.1563 15.9093 36.3166 14.8636 36.4472 13.8299C36.5758 12.7982 36.6392 11.8065 36.6392 10.8568C36.6392 10.279 36.6214 9.75714 36.5818 9.28728C36.5422 8.81942 36.465 8.42153 36.3502 8.09563C36.2335 7.76773 36.0652 7.51381 35.8456 7.33386C35.6259 7.15592 35.3369 7.06395 34.9747 7.06395C34.292 7.06395 33.6468 7.30187 33.0392 7.77573C32.4336 8.25158 31.8596 8.90539 31.3174 9.73914C30.7751 10.5749 30.2684 11.5626 29.7974 12.7043C29.3264 13.8459 28.8811 15.0815 28.4615 16.4091C28.0419 17.7387 27.6521 19.1303 27.2919 20.5859C26.9297 22.0435 26.5952 23.509 26.2845 24.9846C25.9738 26.4601 25.6848 27.9177 25.4137 29.3553C25.1426 30.7928 24.8912 32.1524 24.6596 33.436C24.5548 33.7939 24.3984 34.0998 24.1847 34.3498C23.9709 34.5997 23.7255 34.8016 23.4484 34.9556C23.1714 35.1095 22.8785 35.2215 22.5677 35.2935C22.259 35.3635 21.9483 35.3994 21.6395 35.3994C21.3684 35.3994 21.1012 35.3475 20.836 35.2455C20.5708 35.1415 20.3393 34.9776 20.1394 34.7536C19.9395 34.5297 19.7772 34.2438 19.6545 33.8979C19.5318 33.552 19.4724 33.1281 19.4724 32.6263C19.4724 32.2944 19.5496 31.7185 19.704 30.9048C19.8583 30.089 20.0543 29.1133 20.2937 27.9777C20.5332 26.842 20.7905 25.5984 21.0676 24.2448C21.3466 22.8912 21.6039 21.5116 21.8434 20.106C22.0809 18.7005 22.2788 17.3109 22.4332 15.9393C22.5875 14.5657 22.6647 13.3021 22.6647 12.1464C22.6647 11.3507 22.6449 10.6389 22.6073 10.0091C22.5677 9.38125 22.4787 8.84941 22.3362 8.41154C22.1937 7.97567 21.9898 7.64177 21.7266 7.41183C21.4614 7.1799 21.1091 7.06395 20.6718 7.06395C20.3096 7.06395 19.8979 7.30786 19.4328 7.79572C18.9677 8.28357 18.467 8.95738 17.9327 9.81712C17.3963 10.6769 16.8461 11.6886 16.2781 12.8502C15.7101 14.0099 15.1461 15.2655 14.584 16.6111C14.022 17.9587 13.4817 19.3683 12.9592 20.8378C12.4347 22.3074 11.9558 23.7769 11.5164 25.2445C11.0771 26.7141 10.6911 28.1516 10.3547 29.5572C10.0202 30.9628 9.76688 32.2804 9.60064 33.512C9.54918 33.8979 9.42647 34.2118 9.23252 34.4557C9.03857 34.6996 8.80702 34.8916 8.53588 35.0336C8.26474 35.1735 7.97381 35.2735 7.66507 35.3315C7.35435 35.3895 7.05749 35.4174 6.77448 35.4174C6.43803 35.4174 6.11346 35.3834 5.7968 35.3115C5.48014 35.2415 5.19911 35.1335 4.9537 34.9856C4.71027 34.8376 4.51632 34.6577 4.37383 34.4457C4.23133 34.2338 4.16206 33.9939 4.16206 33.7239C4.16206 33.1981 4.18779 32.7143 4.23924 32.2704C4.2907 31.8285 4.36788 31.3827 4.47079 30.9328C4.83099 29.4312 5.14766 28.0356 5.41879 26.746C5.68993 25.4564 5.92346 24.2348 6.11543 23.0791C6.30938 21.9235 6.47761 20.8058 6.62011 19.7201C6.76063 18.6365 6.88729 17.5468 6.99614 16.4491C7.10697 15.3515 7.20592 14.2198 7.29696 13.0501C7.38602 11.8845 7.483 10.6329 7.58789 9.29727V8.85341C7.58789 8.67546 7.5681 8.5055 7.52852 8.34355C7.49092 8.1836 7.42362 8.04565 7.32664 7.93169C7.22967 7.81572 7.08322 7.75774 6.89124 7.75774C6.58052 7.75774 6.20252 7.8637 5.75722 8.07564C5.31192 8.28757 4.84485 8.57349 4.35403 8.93138C3.8652 9.29127 3.37437 9.71115 2.88355 10.193C2.52707 10.5415 2.19146 10.9101 1.87598 11.2972C1.63889 11.5881 1.49669 11.9872 1.16174 12.1564C0.993512 12.2384 0.805497 12.2804 0.59967 12.2804C0.534359 12.2804 0.467069 12.2264 0.395821 12.1184C0.326552 12.0085 0.261244 11.8765 0.20385 11.7225C0.144477 11.5686 0.0969779 11.4046 0.0573959 11.2327C0.0197929 11.0587 0 10.9008 0 10.7608C0 10.6212 0.0984717 10.4987 0.140436 10.3655C0.589682 8.93958 1.09323 7.73977 1.65453 6.76604C2.24233 5.74634 2.8598 4.93059 3.51291 4.32077C4.16403 3.71295 4.82901 3.27907 5.50587 3.02315C6.18272 2.76522 6.83187 2.63727 7.45133 2.63727C8.25089 2.63727 8.91587 2.78922 9.44627 3.08913C9.97469 3.39104 10.3943 3.81491 10.703 4.36075C11.0137 4.90658 11.2294 5.5624 11.3521 6.33217C11.4748 7.10394 11.5362 7.95767 11.5362 8.89339C11.5362 9.61117 11.4768 10.4529 11.362 11.4146C11.2453 12.3764 11.1008 13.388 10.9266 14.4457C10.7525 15.5054 10.5605 16.5671 10.3547 17.6328C10.1488 18.6964 9.94896 19.6922 9.755 20.6159C10.1686 18.9104 10.6555 17.2689 11.2156 15.6974C11.7776 14.1258 12.3912 12.6563 13.0542 11.2907C13.7192 9.92309 14.4257 8.68346 15.1738 7.57379C15.9219 6.46612 16.6938 5.51241 17.4874 4.71664C18.281 3.92088 19.0845 3.30507 19.8979 2.8692C20.7094 2.43333 21.5168 2.21339 22.3164 2.21339C22.9101 2.21339 23.4583 2.34335 23.963 2.59927C24.4657 2.8552 24.8971 3.25308 25.2593 3.79292C25.6195 4.33276 25.9005 5.01255 26.1004 5.83231C26.3003 6.65406 26.4013 7.62977 26.4013 8.75943C26.4013 8.8614 26.3914 9.02135 26.3716 9.23929C26.3518 9.45722 26.3261 9.70914 26.2944 9.98906C26.2627 10.273 26.2231 10.5789 26.1776 10.9048C26.1321 11.2327 26.0905 11.5566 26.0529 11.8765C25.9579 12.5741 25.8596 13.3243 25.755 14.1286C25.738 14.2594 25.8436 14.3738 25.9754 14.3673C26.0675 14.3628 26.1461 14.2991 26.1701 14.21C26.6655 12.3706 27.2717 10.7149 27.9885 9.23929C28.7227 7.72574 29.548 6.43813 30.4663 5.38045C31.3807 4.32077 32.3683 3.51101 33.4271 2.94518C34.4839 2.38135 35.5823 2.09943 36.7183 2.09943C37.504 2.09943 38.2046 2.32937 38.8182 2.79123C39.4297 3.25309 39.9423 3.87889 40.3559 4.66666C40.7696 5.45842 41.0842 6.38015 41.3039 7.43983C41.5236 8.49952 41.6344 9.61918 41.6344 10.7988C41.6344 11.9025 41.5592 13.0341 41.4108 14.1978C41.2623 15.3575 41.0783 16.5071 40.8586 17.6408C40.6389 18.7764 40.4054 19.8921 40.1521 20.9818C39.9007 22.0714 39.6652 23.1051 39.4475 24.0808C39.2258 25.0565 39.0438 25.9563 38.8953 26.786C38.7469 27.6138 38.6717 28.3296 38.6717 28.9314C38.6717 29.6892 38.8102 30.237 39.0893 30.5769C39.3664 30.9168 39.7681 31.0867 40.2985 31.0867C40.5954 31.0867 40.9081 31.0068 41.2366 30.8468C41.5652 30.6868 41.8957 30.4749 42.2242 30.211C42.5527 29.9491 42.8793 29.6472 43.2019 29.3073C43.5245 28.9654 43.8332 28.6175 44.1301 28.2576C44.9825 27.2391 45.3936 25.9412 45.6404 24.6362C47.2747 15.9945 52.8642 16.933 54.0573 16.933C60.3706 17.8167 59.6245 24.5467 59.5869 25.7163C59.5869 26.4741 59.5018 27.2379 59.3355 28.0077C59.1673 28.7774 58.9259 29.5212 58.6092 30.241C58.5306 30.4172 58.7042 30.5794 58.8546 30.4585C59.8755 29.6386 60.9112 27.7865 62.7134 24.0038C62.896 23.6206 62.9849 23.1975 62.9854 22.773C62.9879 20.4615 63.2311 19.0521 63.1513 20.136C63.1924 19.5682 63.2453 19.0038 63.3093 18.4422C63.3663 17.9418 63.0141 17.4977 62.5219 17.3908C62.3082 17.3469 62.0825 17.3029 61.8431 17.2569C61.6056 17.2129 61.3028 17.1629 60.9347 17.1129C60.5665 17.0609 60.0342 16.997 59.3375 16.919C59.0268 16.881 58.7893 16.807 58.6211 16.6991C58.4529 16.5891 58.3302 16.4611 58.253 16.3132C58.1758 16.1672 58.1303 16.0113 58.1184 15.8513C58.1045 15.6914 58.0986 15.5534 58.0986 15.4374C58.0986 15.1815 58.2253 14.9856 58.4766 14.8496C58.728 14.7156 59.0506 14.6177 59.4444 14.5517C59.8382 14.4877 60.2697 14.4537 60.7407 14.4457C61.2117 14.4397 61.663 14.4437 62.0964 14.4557C62.5278 14.4697 62.9157 14.4777 63.2561 14.4857C63.6852 14.4932 64.0166 14.1818 64.1078 13.7625C64.4315 12.2756 64.8259 10.8289 65.2887 9.42123C65.825 7.79972 66.4247 6.35615 67.0897 5.09253C67.7547 3.82691 68.479 2.81521 69.2667 2.04944C70.0544 1.28767 70.8797 0.905792 71.7445 0.905792C72.2987 0.905792 72.8053 1.05974 73.2645 1.36765C73.7217 1.67555 74.1115 2.08543 74.4341 2.59927C74.7567 3.11312 75.0061 3.71295 75.1803 4.39874C75.3544 5.08654 75.4415 5.80032 75.4415 6.5441C75.4415 7.17391 75.3505 7.83772 75.1704 8.53751C74.9903 9.2373 74.7449 9.94907 74.4341 10.6729C74.1254 11.3986 73.7612 12.1344 73.3417 12.8782C72.7923 13.8521 73.4779 15.0898 74.596 15.0768C75.1729 15.07 75.7608 15.0635 76.9713 15.0635C77.3058 15.0775 77.5829 15.3095 77.8026 15.3215C78.0599 15.3355 78.2479 15.4634 78.3646 15.7074C78.4794 15.9513 78.5388 16.2592 78.5388 16.6311C78.5388 17.0809 78.4102 17.4468 78.1509 17.7287C77.8936 18.0107 77.6086 18.1526 77.2999 18.1526H71.7533C70.5674 18.1526 69.4575 18.7223 68.7343 19.6622C68.0596 20.5426 67.6377 21.5962 67.578 22.7039C67.5664 22.9199 67.5553 23.1349 67.5449 23.3491C67.531 23.683 67.5191 24.0269 67.5053 24.3788C67.4934 24.7326 67.4796 25.0805 67.4677 25.4284C67.4538 25.7743 67.4439 26.1082 67.438 26.4281C67.4321 26.75 67.4281 27.044 67.4281 27.3139C67.4281 28.0077 67.4934 28.5915 67.6221 29.0653C67.7507 29.5412 67.9367 29.9291 68.1821 30.231C68.4276 30.5329 68.7284 30.7508 69.0826 30.8848C69.4369 31.0208 69.8347 31.0867 70.274 31.0867C70.5452 31.0867 70.8836 31.0228 71.2893 30.8948C71.6951 30.7668 72.1404 30.5909 72.6252 30.3649C73.1081 30.141 73.6187 29.8751 74.1551 29.5672C74.6894 29.2593 75.2179 28.9214 75.7423 28.5555C76.1523 28.2682 76.3568 27.7782 76.3423 27.2778C76.3395 27.1813 76.338 27.0847 76.338 26.988C76.338 29.2866 75.2166 17.7016 84.1356 16.971C84.7332 16.922 85.3386 16.9715 85.9119 17.1468C89.3058 18.1842 91.6432 21.5832 90.3323 28.0077C90.166 28.7774 89.9226 29.5212 89.6079 30.241C89.4986 30.4891 89.3795 30.731 89.2523 30.9678C89.1984 31.068 89.334 31.1731 89.4289 31.1103C89.4747 31.0799 89.5263 31.0979 89.5583 31.1425C89.5904 31.1873 89.6522 31.1987 89.698 31.1681C90.1458 30.87 90.6727 30.5063 91.2803 30.077C91.9255 29.6212 92.5806 29.1373 93.2455 28.6235C93.9105 28.1096 94.5399 27.5838 95.1336 27.0439C95.318 26.874 95.387 26.6087 95.3449 26.3615C95.3259 26.2497 95.3079 26.1376 95.2979 26.0243C95.1751 24.6907 95.1138 23.433 95.1138 22.2514C95.1138 20.224 95.2998 18.2686 95.6739 16.3811C96.0499 14.4937 96.5843 12.7282 97.2809 11.0787C97.9776 9.42923 98.8226 7.92368 99.8161 6.56409C100.81 5.20449 101.93 4.03485 103.175 3.06114C104.42 2.08543 105.775 1.33166 107.24 0.79982C108.704 0.26598 110.262 6.10352e-05 111.914 6.10352e-05C114.082 6.10352e-05 115.981 0.291968 117.614 0.875793C119.247 1.46162 120.605 2.23538 121.689 3.20509C122.772 4.1748 123.589 5.28648 124.137 6.5441C124.686 7.80172 124.961 9.10533 124.961 10.4529C124.961 11.7105 124.715 12.9542 124.224 14.1858C123.734 15.4194 122.995 16.5531 122.008 17.5928ZM178.782 27.9297C178.737 27.5718 178.68 27.2279 178.608 26.9C178.537 26.5741 178.46 26.2642 178.377 25.9763C178.277 25.6386 177.855 25.5315 177.605 25.7793L173.609 29.7377C173.451 29.894 173.538 30.2927 173.692 30.4529C173.88 30.6449 174.096 30.8568 174.341 31.0867C174.587 31.3187 174.87 31.5306 175.192 31.7225C175.515 31.9145 175.883 32.0105 176.297 32.0105C176.799 32.0105 177.215 31.9285 177.544 31.7605C177.874 31.5946 178.135 31.3726 178.327 31.0967C178.521 30.8208 178.658 30.5009 178.735 30.135C178.812 29.7691 178.852 29.3872 178.852 28.9894C178.852 28.6415 178.828 28.2896 178.782 27.9297ZM161.691 27.9297C161.645 27.5718 161.588 27.2279 161.517 26.9C161.445 26.5741 161.368 26.2642 161.285 25.9763C161.185 25.6386 160.764 25.5315 160.513 25.7793L156.517 29.7377C156.36 29.894 156.447 30.2927 156.601 30.4529C156.789 30.6449 157.004 30.8568 157.25 31.0867C157.495 31.3187 157.778 31.5306 158.101 31.7225C158.423 31.9145 158.792 32.0105 159.205 32.0105C159.708 32.0105 160.123 31.9285 160.452 31.7605C160.782 31.5946 161.044 31.3726 161.238 31.0967C161.43 30.8208 161.566 30.5009 161.643 30.135C161.721 29.7691 161.76 29.3872 161.76 28.9894C161.76 28.6415 161.736 28.2896 161.691 27.9297ZM143.457 25.6884C144.006 25.4504 144.516 25.1465 144.987 24.7726C145.458 24.4007 145.854 23.9969 146.177 23.561C146.499 23.1251 146.662 22.7012 146.662 22.2914C146.662 21.7135 146.555 21.2377 146.341 20.8658C146.129 20.4939 145.868 20.308 145.557 20.308C145.003 20.308 144.528 20.4099 144.134 20.6159C143.74 20.8218 143.412 21.0877 143.149 21.4156C142.883 21.7415 142.67 22.1134 142.509 22.5313C142.347 22.9492 142.224 23.3691 142.141 23.7909C142.058 24.2148 142.003 24.6267 141.977 25.0246C141.941 25.5871 142.402 26.0471 142.941 25.8809C143.109 25.8291 143.281 25.7649 143.457 25.6884ZM189.994 29.9284C189.993 30.4648 189.747 30.9754 189.301 31.2738C188.654 31.7066 187.928 32.119 187.164 32.5103C186.113 33.0502 185.009 33.526 183.855 33.9359C182.699 34.3458 181.531 34.6717 180.35 34.9076C179.17 35.1455 178.05 35.2635 176.993 35.2635C176.231 35.2635 175.521 35.1935 174.864 35.0515C174.205 34.9116 173.629 34.6897 173.132 34.3897C172.635 34.0878 172.232 33.692 171.921 33.2041C171.532 32.5876 170.722 32.1795 170.072 32.5103C169.021 33.0502 167.917 33.526 166.763 33.9359C165.608 34.3458 164.44 34.6717 163.258 34.9076C162.079 35.1455 160.959 35.2635 159.902 35.2635C159.14 35.2635 158.429 35.1935 157.772 35.0515C157.113 34.9116 156.537 34.6897 156.041 34.3897C155.544 34.0878 155.14 33.692 154.829 33.2041C154.603 32.8465 154.442 32.4341 154.347 31.967C154.289 31.686 154.023 31.4876 153.737 31.5106C153.557 31.522 153.383 31.5791 153.239 31.6877C153.092 31.7979 152.945 31.9068 152.797 32.0105C152.243 32.3963 151.645 32.7742 151.006 33.1461C150.368 33.518 149.698 33.8499 148.993 34.1378C148.29 34.4277 147.562 34.6577 146.806 34.8316C146.052 35.0056 145.286 35.0915 144.512 35.0915C143.299 35.0915 142.238 34.8736 141.328 34.4357C140.419 33.9999 139.661 33.414 139.054 32.6743C138.448 31.9385 137.993 31.0827 137.69 30.115C137.487 29.4664 136.769 29.086 136.121 29.291C136.104 29.2965 136.087 29.3019 136.069 29.3073C135.547 29.4672 135.015 29.5472 134.472 29.5472C133.504 29.5472 132.723 29.3512 132.129 28.9594C131.535 28.5695 131.064 28.0556 130.716 27.4198C130.368 26.786 130.11 26.0722 129.942 25.2845C129.786 24.5506 129.658 23.8081 129.559 23.0586C129.546 22.9607 129.462 22.8872 129.364 22.8872C129.281 22.8872 129.207 22.9391 129.179 23.0169L125.762 32.4923C125.58 32.9942 125.41 33.406 125.25 33.7339C125.087 34.0618 124.923 34.3278 124.755 34.5317C124.587 34.7376 124.407 34.8836 124.213 34.9656C124.021 35.0496 123.807 35.0915 123.575 35.0915C123.045 35.0915 122.619 34.9776 122.297 34.7536C121.974 34.5297 121.727 34.2278 121.551 33.8499C121.378 33.472 121.262 33.0401 121.204 32.5603C121.145 32.0784 121.115 31.5806 121.115 31.0687C121.115 30.5029 121.149 29.8451 121.212 29.0953C121.278 28.3436 121.365 27.5518 121.473 26.718C121.584 25.8843 121.713 25.0325 121.861 24.1668C122.01 23.3011 122.168 22.4773 122.336 21.6936C122.503 20.9118 122.671 20.192 122.839 19.5382C123.005 18.8844 123.174 18.3446 123.342 17.9207C123.445 17.6388 123.548 17.4148 123.652 17.2469C123.755 17.0809 123.874 16.949 124.011 16.853C124.145 16.757 124.314 16.691 124.513 16.6611C124.713 16.6291 124.961 16.6111 125.258 16.6111C125.594 16.6111 125.855 16.6291 126.043 16.6611C126.229 16.691 126.368 16.769 126.459 16.891C126.548 17.013 126.603 17.1909 126.623 17.4208C126.643 17.6508 126.653 17.9667 126.653 18.3645V20.086C126.653 20.7153 126.663 21.3359 126.686 21.9494C126.688 22.022 126.748 22.0794 126.821 22.0794C126.872 22.0794 126.919 22.0505 126.942 22.0047C127.19 21.5101 127.468 20.9611 127.775 20.356C128.098 19.7201 128.472 19.1283 128.897 18.5745C129.323 18.0247 129.807 17.5588 130.35 17.1789C130.89 16.801 131.517 16.6111 132.226 16.6111C132.471 16.6111 132.711 16.6531 132.942 16.737C133.174 16.821 133.378 16.939 133.552 17.0929C133.726 17.2469 133.865 17.4368 133.968 17.6608C134.072 17.8867 134.124 18.1386 134.124 18.4225C134.124 18.6405 134.09 18.9444 134.027 19.3363C133.962 19.7261 133.89 20.138 133.813 20.5679C133.736 20.9978 133.665 21.4156 133.601 21.8195C133.536 22.2234 133.504 22.5593 133.504 22.8292C133.504 23.2911 133.548 23.677 133.639 23.9849C133.73 24.2928 133.849 24.5387 133.997 24.7246C134.146 24.9126 134.314 25.0426 134.5 25.1205C134.688 25.1965 134.884 25.2345 135.092 25.2345C135.672 25.2345 136.271 25.1085 136.891 24.8506C137.277 24.6888 137.538 24.3301 137.636 23.9235C137.759 23.4176 137.91 22.9175 138.096 22.4253C138.387 21.6556 138.751 20.9218 139.19 20.222C139.628 19.5222 140.14 18.9064 140.728 18.3725C141.316 17.8407 141.973 17.4168 142.703 17.1029C143.432 16.789 144.241 16.6311 145.132 16.6311C145.854 16.6311 146.525 16.747 147.144 16.977C147.764 17.2089 148.302 17.5328 148.761 17.9507C149.219 18.3666 149.577 18.8704 149.836 19.4602C150.093 20.052 150.222 20.7119 150.222 21.4436C150.222 22.2394 150.026 23.0352 149.632 23.8309C149.238 24.6267 148.694 25.3764 147.997 26.0822C147.299 26.788 146.47 27.4178 145.51 27.9697C144.837 28.3557 144.125 28.682 143.374 28.9486C142.876 29.1251 142.622 29.7149 142.955 30.125C143.141 30.355 143.333 30.5369 143.525 30.6629C143.719 30.7928 143.922 30.8828 144.134 30.9328C144.348 30.9848 144.578 31.0108 144.823 31.0108C145.597 31.0108 146.412 30.8568 147.271 30.5489C148.118 30.245 148.941 29.8651 149.745 29.4092C149.719 29.4252 149.719 29.4252 149.777 29.3932C149.767 29.3992 149.755 29.4032 149.745 29.4092C150.04 29.2293 155.692 25.9203 156.533 25.0325C156.856 24.6946 157.149 24.3507 157.414 24.0029C157.679 23.657 157.992 23.2471 158.352 22.7712C158.714 22.2974 159.154 21.7175 159.668 21.0298C160.185 20.344 160.856 19.4862 161.681 18.4605C161.849 18.2286 162.037 18.0047 162.243 17.7867C162.449 17.5688 162.678 17.3728 162.93 17.1989C163.181 17.025 163.46 16.885 163.763 16.775C164.066 16.6671 164.404 16.6111 164.778 16.6111C165.398 16.6111 165.875 16.6791 166.211 16.815C166.546 16.949 166.791 17.1129 166.947 17.3049C167.102 17.4968 167.191 17.6988 167.219 17.9107C167.244 18.1226 167.256 18.3066 167.256 18.4605C167.256 18.7684 167.133 19.1083 166.888 19.4802C166.643 19.8521 166.371 20.212 166.077 20.5579C165.778 20.9038 165.499 21.2217 165.233 21.5116C164.877 21.899 164.76 22.4245 164.822 22.9475C164.834 23.0492 164.849 23.1478 164.865 23.2431C164.925 23.571 165.002 23.8909 165.099 24.2068C165.196 24.5207 165.295 24.8526 165.398 25.2065C165.501 25.5604 165.602 25.9663 165.699 26.4281C165.796 26.89 165.873 27.4238 165.93 28.0257C165.943 28.1598 165.954 28.2994 165.964 28.4443C166.015 29.1792 166.85 29.6364 167.517 29.3253C168.054 29.0753 168.612 28.8154 169.192 28.5475C169.443 28.4296 169.699 28.3055 169.957 28.1765C170.221 28.0443 170.478 27.8929 170.702 27.6998C171.424 27.0839 172.012 26.5701 172.463 26.1602C172.914 25.7483 173.302 25.3744 173.625 25.0325C173.947 24.6946 174.24 24.3507 174.506 24.0029C174.769 23.657 175.083 23.2471 175.444 22.7712C175.806 22.2974 176.243 21.7175 176.76 21.0298C177.276 20.344 177.947 19.4862 178.773 18.4605C178.941 18.2286 179.129 18.0047 179.335 17.7867C179.54 17.5688 179.77 17.3728 180.021 17.1989C180.273 17.025 180.552 16.885 180.855 16.775C181.157 16.6671 181.496 16.6111 181.87 16.6111C182.489 16.6111 182.966 16.6791 183.303 16.815C183.637 16.949 183.883 17.1129 184.039 17.3049C184.193 17.4968 184.282 17.6988 184.31 17.9107C184.336 18.1226 184.348 18.3066 184.348 18.4605C184.348 18.7684 184.225 19.1083 183.98 19.4802C183.734 19.8521 183.463 20.212 183.166 20.5579C182.869 20.9038 182.59 21.2217 182.325 21.5116C181.968 21.899 181.852 22.4245 181.914 22.9475C181.926 23.0492 181.94 23.1478 181.957 23.2431C182.016 23.571 182.093 23.8909 182.19 24.2068C182.285 24.5207 182.386 24.8526 182.489 25.2065C182.592 25.5604 182.693 25.9663 182.79 26.4281C182.887 26.89 182.964 27.4238 183.022 28.0257C183.034 28.1598 183.046 28.2994 183.056 28.4443C183.106 29.1792 183.941 29.6364 184.609 29.3253C185.145 29.0753 185.703 28.8154 186.283 28.5475C186.863 28.2776 187.461 27.9777 188.074 27.6518C188.896 27.211 189.998 27.7977 189.996 28.7306L189.994 29.9284Z" fill="white"/>
</svg>
